<?xml version="1.0" encoding="UTF-8" standalone="no"?>
<svg
        width="180"
        height="30"
        viewBox="15 105 175 30"
        version="1.1"
        xmlns="http://www.w3.org/2000/svg">
    <g>
        <path
                style="fill:white;stroke:none"
                d="m 28.712775,107.32779 -1.322917,2.11667 1.322917,2.11666 h 0.264583 l 1.322917,-2.11666 -1.5875,-2.11667 m 58.472915,0 -1.322916,2.11667 1.322916,2.11666 h 0.264584 l 1.322916,-2.11666 -1.5875,-2.11667 m 2.38125,7.67292 c 1.295108,3.11487 3.821129,9.75873 0.529167,12.43541 v 0.26459 c 1.305225,0 2.671132,0.11629 3.968752,-0.0288 2.00354,-0.22401 2.78446,-2.12592 2.84161,-3.93996 0.11734,-3.72424 -2.10073,-6.45389 -4.19209,-9.26042 -0.65889,-0.88421 -1.806411,-2.24484 -1.684067,-3.43427 0.178631,-1.73667 1.855827,-0.86886 2.477607,0.006 1.22271,1.72101 1.71508,4.00323 1.87985,6.07378 h 0.26459 l -0.26459,-8.20208 c -1.5188,1.5799 -4.012541,-1.13548 -5.095268,1.5924 -1.749166,4.40693 4.579868,8.75254 5.484388,12.6951 0.28608,1.24698 -0.56105,5.54807 -2.61072,3.5435 -0.82488,-0.80674 -0.37602,-2.76415 -0.44791,-3.80808 -0.16881,-2.45107 -0.89861,-6.55972 -3.151319,-7.9375 m 7.143749,0 c 1.29511,3.11487 3.821131,9.75873 0.52917,12.43541 v 0.26459 c 1.30521,0 2.67113,0.11629 3.968751,-0.0288 2.00354,-0.22401 2.78446,-2.12592 2.84161,-3.93996 0.11734,-3.72424 -2.10073,-6.45389 -4.192091,-9.26042 -0.65889,-0.88421 -1.80641,-2.24484 -1.68407,-3.43427 0.17864,-1.73667 1.855831,-0.86886 2.477611,0.006 1.22271,1.72101 1.71508,4.00323 1.87985,6.07378 h 0.26459 l -0.26459,-8.20208 c -1.5188,1.5799 -4.012541,-1.13548 -5.095271,1.5924 -1.74916,4.40693 4.579871,8.75254 5.484391,12.6951 0.28608,1.24697 -0.56105,5.54807 -2.61072,3.5435 -0.824881,-0.80674 -0.376021,-2.76415 -0.447911,-3.80808 -0.16881,-2.45107 -0.89861,-6.55972 -3.15132,-7.9375 m -76.993747,12.7 v -0.26459 c -2.016141,-1.11174 -0.741793,-4.91315 -1.322917,-6.87916 h -0.264583 c 0,1.67639 -0.03585,3.38917 -0.445464,5.02688 -0.141428,0.56545 -0.524954,1.77068 -1.344557,1.34394 -1.925132,-1.00236 -1.120396,-6.70417 -1.120396,-8.48749 l 3.175,0.52917 v -2.11667 h -0.264583 l -2.910417,0.79375 c 0,-1.80971 -0.666442,-5.97641 0.907464,-7.28502 1.892426,-1.57345 2.002862,4.08544 2.002953,4.90377 h 0.529166 c 0,-1.6991 -0.6381,-4.6208 1.058334,-5.55625 -1.294293,-0.55832 -3.513738,-0.93554 -4.506083,0.32501 -2.588449,3.28805 -2.087987,9.37741 -1.31373,13.16874 0.28689,1.40482 0.637594,3.44292 1.886177,4.33806 1.043107,0.74783 2.732504,0.1698 3.933636,0.15986 M 34.296587,109.3879 c -1.248523,0.44487 -1.725067,2.35855 -2.017654,3.49614 -0.904994,3.51863 -0.891077,7.30512 -0.122695,10.84792 0.27268,1.25724 1.056274,4.44232 2.902657,4.03448 1.423825,-0.31449 1.912678,-2.31583 2.21854,-3.50532 0.930567,-3.61895 0.961803,-7.47598 0.104118,-11.1125 -0.312175,-1.32359 -1.120753,-4.46058 -3.084966,-3.76072 m 4.470354,-0.20803 v 6.35 h 0.264583 c 0.09148,-0.72385 0.555698,-6.38383 2.186079,-5.09282 0.908024,0.71902 0.459755,3.27722 0.459755,4.29907 0,2.98164 1.484781,11.53751 -1.852084,12.7 v 0.26459 h 5.291667 v -0.26459 c -2.302441,-0.4701 -1.852083,-2.60755 -1.852083,-4.49791 v -12.96459 c 2.306987,0.6635 2.375634,3.52175 2.38125,5.55625 h 0.264583 l 0.264583,-6.35 h -7.408333 m 7.672917,0 v 6.35 h 0.264583 c 0.09148,-0.72385 0.555691,-6.38383 2.186079,-5.09282 0.908027,0.71902 0.459754,3.27722 0.459754,4.29907 0,2.98164 1.484781,11.53752 -1.852083,12.7 v 0.26459 h 5.291667 v -0.26459 c -2.302448,-0.4701 -1.852084,-2.60755 -1.852084,-4.49791 v -12.96459 c 2.347467,0.38209 2.375969,3.64207 2.38125,5.55625 h 0.264584 l 0.264583,-6.35 h -7.408333 m 12.964583,0.26459 v 0.26458 c 1.567588,0.82264 1.322916,2.4012 1.322916,3.96875 v 9.78958 c 0,1.56755 0.244672,3.14611 -1.322916,3.96875 v 0.26459 h 3.96875 v -0.26459 c -1.611078,-0.81256 -1.322917,-2.37798 -1.322917,-3.96875 v -10.58333 h 0.264583 c 0.198426,4.62143 0.723414,10.41081 2.116667,14.81667 h 0.529167 c 1.393249,-4.40585 1.918241,-10.19524 2.116666,-14.81667 h 0.264584 v 10.58333 c 0,1.59077 0.28816,3.15619 -1.322917,3.96875 v 0.26459 h 3.96875 v -0.26459 c -1.567589,-0.82264 -1.322917,-2.4012 -1.322917,-3.96875 v -9.78958 c 0,-1.56754 -0.244672,-3.14611 1.322917,-3.96875 -3.118265,-1.39985 -7.294048,-0.27366 -10.583333,-0.26458 m 13.785895,-0.0565 c -1.248482,0.44484 -1.725141,2.35855 -2.017654,3.49613 -0.901923,3.50758 -0.888067,7.31898 -0.122695,10.84792 0.272678,1.25724 1.056282,4.44232 2.902657,4.03448 1.423831,-0.3145 1.912682,-2.31583 2.218542,-3.50532 0.930563,-3.61895 0.961803,-7.47598 0.104116,-11.1125 -0.312174,-1.32359 -1.120749,-4.46058 -3.084966,-3.76071 m 3.941188,0.0565 v 0.26458 c 1.567588,0.82264 1.322916,2.4012 1.322916,3.96875 v 9.78958 c 0,1.56755 0.244676,3.14611 -1.322916,3.96875 v 0.26459 h 7.672916 v -0.26459 c -1.922137,-1.09583 -2.688337,-4.03174 -3.175,-6.08541 3.79796,-1.0917 3.363385,-9.22329 0.918282,-11.49019 -1.331943,-1.23486 -3.770409,-0.41715 -5.416198,-0.41606 m 33.866666,18.25625 v -0.26459 c -2.01613,-1.11174 -0.7418,-4.91316 -1.32292,-6.87916 h -0.26458 c 0,1.67639 -0.0359,3.38916 -0.44547,5.02688 -0.14142,0.56545 -0.52493,1.77069 -1.34455,1.34394 -1.92514,-1.00236 -1.1204,-6.70418 -1.1204,-8.48749 l 3.175,0.52917 v -2.11667 h -0.26458 l -2.91042,0.79375 c 0,-1.80971 -0.66644,-5.97641 0.90747,-7.28502 1.89242,-1.57345 2.00286,4.08545 2.00295,4.90377 h 0.52917 c 0,-1.6991 -0.6381,-4.6208 1.05833,-5.55625 -1.29429,-0.55832 -3.51373,-0.93555 -4.50608,0.32501 -2.58844,3.28804 -2.088,9.37742 -1.31374,13.16874 0.2869,1.40482 0.63761,3.44293 1.88619,4.33806 1.0431,0.74783 2.73249,0.1698 3.93363,0.15986 m 0.52917,-18.52084 v 6.35 h 0.26458 c 0.0915,-0.72385 0.5557,-6.38383 2.18607,-5.09282 0.90804,0.71903 0.45976,3.27721 0.45976,4.29907 0,2.98164 1.48478,11.53751 -1.85208,12.7 v 0.26459 h 5.29167 v -0.26459 c -2.30245,-0.47011 -1.85209,-2.60755 -1.85209,-4.49791 v -12.96459 c 2.30698,0.6635 2.37565,3.52176 2.38125,5.55625 h 0.26459 l 0.26458,-6.35 h -7.40833 m -91.281252,0.26459 v 0.26458 c 1.567587,0.82264 1.322917,2.4012 1.322917,3.96875 v 9.78958 c 0,1.56755 0.24467,3.14611 -1.322917,3.96875 v 0.26459 l 6.35,0.26458 -0.264583,-6.61458 h -0.264584 c -0.001,1.52419 0.02652,3.4053 -0.817431,4.74677 -0.505277,0.80315 -1.495191,1.21568 -2.085635,0.23989 -0.605252,-1.00027 -0.271934,-2.8033 -0.271934,-3.92833 v -8.99583 c 6.45e-4,-1.67269 0.0072,-3.17352 1.852084,-3.70417 l -4.497917,-0.26458 m 15.875,8.73125 -1.058333,-1.5875 h -0.529167 l -1.058333,1.5875 0.231102,-6.35 1.091814,-1.94845 1.091814,1.94845 0.231103,6.35 m 28.839583,6.08541 h -0.529167 c -0.03526,-4.25928 -1.34978,-8.45319 -1.562594,-12.69979 -0.08249,-1.64606 1.841372,-2.70011 3.255029,-1.58036 0.895371,0.70922 0.254906,2.76342 0.125146,3.69682 -0.48202,3.46725 -1.259431,7.08244 -1.288414,10.58333 m 10.054166,-6.08541 -1.058333,-1.5875 h -0.529167 l -1.058333,1.5875 0.231102,-6.35 1.091814,-1.94845 1.091814,1.94845 0.231103,6.35 m 6.879167,2.64583 -1.5875,-0.52917 c 0.27355,1.00015 0.673376,1.9479 1.058333,2.91042 0.386435,0.96621 1.211086,2.32321 0.962788,3.40038 -0.236734,1.02704 -1.72051,0.99532 -2.23834,0.21967 -0.610714,-0.91477 -0.311948,-2.57467 -0.311948,-3.62005 v -9.26042 c 6.9e-5,-1.10678 -0.231313,-2.90119 0.565913,-3.80787 1.181404,-1.34361 1.998191,1.1612 2.078903,1.95579 0.284382,2.79973 0.736736,6.10646 -0.528149,8.73125 m -55.033333,-8.20208 v 0.26458 c 2.587776,1.51069 1.327456,8.66214 1.322917,11.37708 -0.0023,1.38122 -3.9e-5,2.48078 -1.322917,3.175 v 0.26459 h 3.96875 v -0.26459 c -1.372538,-0.69225 -1.322282,-1.76407 -1.322916,-3.175 -0.0012,-2.71663 -1.267259,-9.86499 1.322916,-11.37708 l -3.96875,-0.26458 m 58.472916,0 v 0.26458 c 2.587778,1.51069 1.327454,8.66214 1.322917,11.37708 -0.0023,1.38121 -4.9e-5,2.48079 -1.322917,3.175 v 0.26459 h 3.96875 v -0.26459 c -1.372542,-0.69225 -1.322279,-1.76407 -1.322917,-3.175 -0.0012,-2.71663 -1.267259,-9.86499 1.322917,-11.37708 l -3.96875,-0.26458 m -51.593749,6.08541 h 0.264583 l 0.529167,1.85209 h 0.529167 l 1.058333,-1.85209 c 0,1.5405 0.758826,7.73397 -1.120396,8.37521 -0.958575,0.32709 -1.199127,-1.15957 -1.294131,-1.76062 -0.299723,-1.89621 -0.721114,-4.81678 0.03328,-6.61459 m 38.893749,0 h 0.264583 l 0.529167,1.85209 h 0.529167 l 1.058333,-1.85209 c 0,1.5405 0.758828,7.73397 -1.120397,8.37521 -0.95857,0.32709 -1.199128,-1.15958 -1.294132,-1.76062 -0.299723,-1.89622 -0.721108,-4.81678 0.03328,-6.61459 z"
        />
    </g>
</svg>